<svg width="40" height="36" fill="none" xmlns="http://www.w3.org/2000/svg"><path opacity=".9" d="M5.417 23.364c-.907 2.622-.928 7.264 6.238 4.854l4.958-5.858 2.08 1.674c.692-.503 2.143-1.406 2.399-1.005.746 1.116 2.207 3.582 2.079 4.52l.32.669 2.399 1.004v.334c2.453.335 7.645.804 8.797 0v-1.339c.32-.334.672-1.372-.48-2.845-1.28-.78-3.647-2.41-2.879-2.677l-.48-.335c-.8-.447-2.399-1.774-2.399-3.515l-.96-4.016 4.639 6.527h.48l-4.159-6.862.8.837c.266.502 1.12 1.305 2.4.502.212-.558.031-1.774-2.4-2.176l-3.04-.335v.335h-.319c-.746.223-2.24.703-2.24.837l-1.439-1.506c.64-1.451 1.728-4.954.96-7.364l-.48-.335-.16-.67-.8-1.339c-.213-.669-1.247-1.807-3.678-1.004-.694.558-2.112 1.808-2.24 2.343l-1.28 2.846-.16.334V9.138l-2.398 3.85v.167l-.48.335-.32.167-.16.167v.335l-.16.167-1.6 1.172-1.279 1.171-.48.67-.32.335-.48 1.004-.48 1.004-.16.67-.64 3.012z" fill="#8AB752"/><path d="M23 13c-.249.116-.665.66-1.123 1.167-.457.506-.917 1.012-1.292 1.597-.35.545-.75 1.051-1.104 1.675-.375.66-.854 1.17-1.21 1.753-.348.574-.643 1.17-1 1.754-.062.156-.104.31-.145.467-.042.157-.084.311-.126.587" stroke="#000" stroke-width="1.5" stroke-linecap="round"/><path opacity=".9" d="M5.417 23.364c-.907 2.622-.928 7.264 6.238 4.854l4.958-5.858 2.08 1.674c.692-.503 2.143-1.406 2.399-1.005.746 1.116 2.207 3.582 2.079 4.52l.32.669 2.399 1.004v.334c2.453.335 7.645.804 8.797 0v-1.339c.32-.334.672-1.372-.48-2.845-1.28-.78-3.647-2.41-2.879-2.677l-.48-.335c-.8-.447-2.399-1.774-2.399-3.515l-.96-4.016 4.639 6.527h.48l-4.159-6.862.8.837c.266.502 1.12 1.305 2.4.502.212-.558.031-1.774-2.4-2.176l-3.04-.335v.335h-.319c-.746.223-2.24.703-2.24.837l-1.439-1.506c.64-1.451 1.728-4.954.96-7.364l-.48-.335-.16-.67-.8-1.339c-.213-.669-1.247-1.807-3.678-1.004-.694.558-2.112 1.808-2.24 2.343l-1.28 2.846-.16.334V9.138l-2.398 3.85v.167l-.48.335-.32.167-.16.167v.335l-.16.167-1.6 1.172-1.279 1.171-.48.67-.32.335-.48 1.004-.48 1.004-.16.67-.64 3.012z" fill="#8AB752"/><path d="M23 13c-.249.116-.665.66-1.123 1.167-.457.506-.917 1.012-1.292 1.597-.35.545-.75 1.051-1.104 1.675-.375.66-.854 1.17-1.21 1.753-.348.574-.643 1.17-1 1.754-.062.156-.104.31-.145.467-.042.157-.084.311-.126.587" stroke="#000" stroke-width="1.5" stroke-linecap="round"/><path d="M20 .5C30.82.5 39.5 8.383 39.5 18S30.82 35.5 20 35.5.5 27.617.5 18 9.18.5 20 .5z" stroke="#8AB752"/></svg>